<?xml version="1.0" encoding="utf-8" ?><svg xmlns="http://www.w3.org/2000/svg" xmlns:xlink="http://www.w3.org/1999/xlink" width="1024" height="1024" viewBox="0 0 1024 1024"><path fill="#636A72" d="M0 0L1024 0L1024 1024L0 1024L0 0ZM340.618 212.72C302.658 214.837 270.632 228.795 245.046 257.511C229.166 275.361 218.469 297.212 214.112 320.702C210.369 341.382 211.987 363.63 212.063 384.571L212.181 475.486L212.068 621.624L212.07 667.639C212.068 676.659 211.779 685.756 212.295 694.761C214.211 728.22 230.204 758.969 255.208 781.071C272.41 796.276 293.128 805.753 315.651 809.85C334.431 813.266 354.151 812.143 373.179 812.138L449.731 812.093L606.291 812.119C633.547 812.128 660.88 812.601 688.125 812.048C723.048 810.892 755.057 796.966 778.964 771.314C795.297 753.663 806.405 731.821 811.051 708.226C814.427 690.719 813.291 671.853 813.259 654.105L813.273 582.603L813.255 434.516L813.259 375.425C813.241 364.204 813.468 352.908 813.019 341.696C811.223 305.397 795.062 271.302 768.099 246.933C750.491 230.695 727.259 219.502 703.753 215.052C682.743 211.074 660.433 212.701 639.127 212.805L561.205 212.92L413.467 212.801C389.249 212.775 364.815 211.902 340.618 212.72Z"/><path d="M688.125 812.048C660.88 812.601 633.547 812.128 606.291 812.119L449.731 812.093L373.179 812.138C354.151 812.143 334.431 813.266 315.651 809.85C293.128 805.753 272.41 796.276 255.208 781.071C230.204 758.969 214.211 728.22 212.295 694.761C211.779 685.756 212.068 676.659 212.07 667.639L212.068 621.624L212.181 475.486L212.063 384.571C211.987 363.63 210.369 341.382 214.112 320.702C218.469 297.212 229.166 275.361 245.046 257.511C270.632 228.795 302.658 214.837 340.618 212.72C364.815 211.902 389.249 212.775 413.467 212.801L561.205 212.92L639.127 212.805C660.433 212.701 682.743 211.074 703.753 215.052C727.259 219.502 750.491 230.695 768.099 246.933C795.062 271.302 811.223 305.397 813.019 341.696C813.468 352.908 813.241 364.204 813.259 375.425L813.255 434.516L813.273 582.603L813.259 654.105C813.291 671.853 814.427 690.719 811.051 708.226C806.405 731.821 795.297 753.663 778.964 771.314C755.057 796.966 723.048 810.892 688.125 812.048ZM504.968 244.727C490.47 245.398 476.131 246.581 461.866 249.374C406.58 260.714 356.298 289.254 318.219 330.909C270.286 383.109 245.303 452.36 248.868 523.14C250.585 557.908 258.995 592.018 273.637 623.599C277.166 631.307 280.811 639.084 285.458 646.196L522.25 646.281L738.548 646.345C775.083 586.639 786.163 514.779 769.308 446.841C751.422 376.953 706.456 317.056 644.336 280.376C602.234 255.436 553.874 243.066 504.968 244.727ZM367.998 690.165C364.683 696.836 362.341 704.2 359.583 711.131C353.924 725.348 348.289 739.724 342.231 753.772C345.962 753.844 349.693 753.885 353.424 753.894C354.511 750.697 355.456 747.313 356.79 744.218L369.375 744.257L382.078 744.267L385.074 753.687L396.01 753.567C391.522 742.055 386.403 730.808 381.792 719.346C379.4 713.397 373.153 695.021 370.1 690.866C369.392 690.592 368.739 690.338 367.998 690.165ZM483.535 690.619C478.054 691.802 472.672 694.082 469.539 699.022C467.24 702.648 466.423 708.469 467.413 712.602C468.462 716.982 471.549 720.072 475.334 722.302C481.046 725.667 493.594 727.045 495.718 734.116C496.353 736.229 496.234 738.914 495.086 740.837C493.864 742.887 490.9 744.802 488.575 745.241C485.462 745.828 481.028 744.845 478.459 742.995C476.31 741.446 474.822 739.267 473.509 737.007C470.522 738.849 467.359 740.606 464.637 742.822C468.013 748.648 472.132 752.082 478.736 753.881C481.006 754.499 483.393 754.793 485.731 755.001C492.138 754.377 498.227 753.416 502.619 748.157C505.822 744.322 508.055 738.329 507.535 733.299C507.105 729.136 504.564 725.681 501.361 723.135C495.698 718.633 478.741 716.058 477.47 708.611C477.126 706.595 477.621 704.718 478.932 703.154C480.672 701.077 483.111 700.39 485.737 700.248C488.956 700.075 492.69 701.011 495.025 703.347C495.906 704.228 496.485 705.378 496.99 706.504C499.684 704.547 502.638 702.653 505.031 700.343C501.579 695.322 496.989 692.146 490.968 690.962C488.521 690.481 486.014 690.445 483.535 690.619ZM654.1 690.358C648.452 702.059 644.256 714.853 639.432 726.944C635.96 735.645 631.328 744.563 628.893 753.558L639.227 753.61L642.881 743.882L658.481 743.994L669.146 743.99C670.267 747.266 671.478 750.444 672.855 753.621L683.673 753.551C681.613 748.295 658.764 691.326 656.993 690.56C656.015 690.137 655.137 690.295 654.1 690.358ZM238.543 690.946L238.539 700.117L255.885 700.13L255.949 753.894L266.759 753.845C266.83 747.939 266.827 742.032 266.75 736.125C266.687 724.084 266.473 712.016 266.67 699.977L283.565 699.992L283.577 691.006L238.543 690.946ZM292.12 691.066L292.138 753.765C295.695 753.792 299.266 753.879 302.82 753.737L302.918 729.797L311.442 729.78C316.121 737.753 320.755 745.754 325.342 753.78L337.575 753.656C332.731 745.402 327.342 737.087 323.255 728.44C328.645 725.607 333.393 722.804 335.384 716.624C336.951 711.762 336.675 705.51 334.298 700.946C331.875 696.295 327.415 693.392 322.433 692.072C313.661 689.747 301.373 691.001 292.12 691.066ZM404.329 690.628C403.766 697.583 404.292 704.841 404.344 711.83C404.446 725.764 404.598 739.768 404.092 753.695L415.07 753.661L415.016 714.28C419.228 719.516 447.142 752.26 450.955 754.033C452.039 754.009 453.026 753.984 454.1 753.797L453.986 691.096L443.542 691.127L443.531 731.349C436.748 723.898 429.778 716.624 423.072 709.104C417.975 703.388 412.912 696.738 407.13 691.743C406.241 690.975 405.467 690.784 404.329 690.628ZM540.712 691.124C531.798 692.703 523.73 696.667 518.493 704.352C513.585 711.555 511.932 721.325 513.661 729.824C515.351 737.97 520.233 745.1 527.217 749.621C534.537 754.407 544.003 755.967 552.515 753.993C558.486 752.608 564.32 748.957 568.722 744.756L561.503 737.817L557.517 740.684C551.942 743.983 546.111 745.331 539.69 743.752C534.425 742.457 529.927 739.446 527.117 734.763C523.89 729.383 523.116 722.346 524.71 716.314C526.151 710.661 529.859 705.853 534.96 703.024C539.608 700.479 545.273 699.732 550.373 701.262C554.354 702.457 557.424 704.719 560.48 707.452C563.035 705.403 565.637 703.396 568.036 701.163C561.715 694.988 554.354 690.825 545.257 690.886C543.742 690.896 542.222 691.012 540.712 691.124ZM578.861 691.116L578.767 753.614L589.519 753.63L589.542 730.757L597.312 730.756C601.083 736.347 608.034 749.829 612.814 753.393C613.663 753.471 614.522 753.587 615.375 753.593L624.406 753.546C619.286 745.517 613.971 737.615 608.465 729.847C613.804 728.717 618.145 726.474 621.165 721.753C623.985 717.346 624.724 711.803 623.584 706.735C622.427 701.594 619.233 697.334 614.699 694.675C604.917 688.936 589.776 690.94 578.861 691.116ZM692.247 690.989C692.114 711.889 692.086 732.79 692.163 753.69L703.221 753.732C703.241 745.329 703.173 736.916 703.29 728.515L722.942 728.455L722.958 719.014L703.189 718.896C703.207 712.689 703.156 706.475 703.247 700.27L729.086 700.208L729.141 691.008L692.247 690.989ZM734.528 690.98L734.507 700.193L751.568 700.328L751.991 753.46L762.147 753.433L762.119 737.015C762.089 724.801 761.993 712.587 761.83 700.374C767.382 700.306 772.945 700.305 778.495 700.154L778.519 691.044L734.528 690.98Z"/><path fill="#E2E2E2" d="M285.458 646.196C280.811 639.084 277.166 631.307 273.637 623.599C258.995 592.018 250.585 557.908 248.868 523.14C245.303 452.36 270.286 383.109 318.219 330.909C356.298 289.254 406.58 260.714 461.866 249.374C476.131 246.581 490.47 245.398 504.968 244.727C553.874 243.066 602.234 255.436 644.336 280.376C706.456 317.056 751.422 376.953 769.308 446.841C786.163 514.779 775.083 586.639 738.548 646.345L522.25 646.281L285.458 646.196ZM399.972 303.371L399.906 472.073C437.235 507.916 474.36 543.972 511.279 580.238L569.108 525.287C580.326 514.762 591.478 504.167 602.563 493.503C609.526 486.915 616.962 480.571 623.52 473.601L623.149 303.379L472.037 303.322C448.062 303.343 423.924 302.712 399.972 303.371ZM613.351 520.836C608.914 525.178 604.5 529.543 600.108 533.931C603.96 537.758 608.007 541.502 611.499 545.664C604.99 552.961 597.814 559.725 590.879 566.616C583.769 573.68 576.759 580.971 569.19 587.547C564.79 583.608 560.586 579.456 556.594 575.104C551.679 579.45 547.182 584.184 542.869 589.123C547.226 593.13 551.559 597.132 555.712 601.353C551.78 605.812 547.716 610.063 543.504 614.257C547.934 618.131 551.974 622.388 556.351 626.297C560.637 622.174 564.866 617.597 569.54 613.938L574.915 619.282L581.784 625.906C586.405 621.71 590.91 617.39 595.296 612.951L582.953 601.041L610.307 573.504C615.158 568.614 619.946 563.424 625.058 558.817C631.061 564.434 636.581 570.752 642.772 576.111L656.009 562.717C645.769 552.816 635.615 542.826 625.55 532.747C621.854 529.073 617.586 523.682 613.351 520.836ZM408.54 522.956C394.927 535.355 381.869 548.585 368.952 561.71C373.556 566.409 378.12 571.148 382.642 575.926C388.55 570.975 393.544 564.956 399.525 560.159C413.288 573.809 427.951 586.989 440.979 601.328C436.722 605.914 431.931 610.098 427.824 614.789L440.531 627.344C443.983 624.045 447.403 620.712 450.789 617.345L454.414 613.764C458.619 618.032 462.753 622.406 467.237 626.383C471.455 622.291 475.876 618.285 479.914 614.023C475.912 609.803 471.863 605.714 467.597 601.759C471.793 597.594 475.979 593.524 480.579 589.796C475.842 585.313 471.351 580.587 466.826 575.891C462.688 579.892 458.712 584.055 454.584 588.06C440.889 574.15 426.432 560.75 413.114 546.509C416.498 543.176 420.02 539.914 423.263 536.447C418.604 532.033 413.791 526.627 408.54 522.956Z"/><path d="M399.906 472.073L399.972 303.371C423.924 302.712 448.062 303.343 472.037 303.322L623.149 303.379L623.52 473.601C616.962 480.571 609.526 486.915 602.563 493.503C591.478 504.167 580.326 514.762 569.108 525.287L511.279 580.238C474.36 543.972 437.235 507.916 399.906 472.073ZM463.73 337.7C456.856 338.419 450.588 340.549 446.141 346.183C439.171 355.015 441.304 372.041 441.325 382.981L464.039 383.006L464.34 361.134C476.218 360.986 488.096 360.94 499.974 360.995C499.698 398.259 500.41 435.571 499.631 472.825C487.276 472.866 480.411 473.605 470.86 464.361C467.928 470.571 465.554 477.955 467.922 484.785C469.245 488.604 472.084 491.393 475.694 493.114C478.434 494.421 481.503 495.037 484.512 495.325C493.277 496.162 502.534 495.525 511.353 495.515C520.046 495.505 528.961 496.069 537.625 495.537C540.014 495.39 542.422 495.097 544.669 494.238C545.771 493.816 546.885 493.345 547.897 492.734C551.97 489.639 554.407 486.338 555.202 481.191C555.624 478.459 555.52 475.645 555.482 472.889L523.951 472.657L524.077 361.12C535.818 361.022 547.561 361.033 559.303 361.154L559.304 382.906L582.478 382.842C582.589 371.362 585.101 354.398 576.538 345.421C573.581 342.321 569.507 339.746 565.344 338.661C557.041 336.495 546.444 337.611 537.862 337.608L493.633 337.608C483.677 337.612 473.682 337.467 463.73 337.7Z"/><path fill="#EFB23C" d="M441.325 382.981C441.304 372.041 439.171 355.015 446.141 346.183C450.588 340.549 456.856 338.419 463.73 337.7C473.682 337.467 483.677 337.612 493.633 337.608L537.862 337.608C546.444 337.611 557.041 336.495 565.344 338.661C569.507 339.746 573.581 342.321 576.538 345.421C585.101 354.398 582.589 371.362 582.478 382.842L559.304 382.906L559.303 361.154C547.561 361.033 535.818 361.022 524.077 361.12L523.951 472.657L555.482 472.889C555.52 475.645 555.624 478.459 555.202 481.191C554.407 486.338 551.97 489.639 547.897 492.734C546.885 493.345 545.771 493.816 544.669 494.238C542.422 495.097 540.014 495.39 537.625 495.537C528.961 496.069 520.046 495.505 511.353 495.515C502.534 495.525 493.277 496.162 484.512 495.325C481.503 495.037 478.434 494.421 475.694 493.114C472.084 491.393 469.245 488.604 467.922 484.785C465.554 477.955 467.928 470.571 470.86 464.361C480.411 473.605 487.276 472.866 499.631 472.825C500.41 435.571 499.698 398.259 499.974 360.995C488.096 360.94 476.218 360.986 464.34 361.134L464.039 383.006L441.325 382.981Z"/><path d="M600.108 533.931C604.5 529.543 608.914 525.178 613.351 520.836C617.586 523.682 621.854 529.073 625.55 532.747C635.615 542.826 645.769 552.816 656.009 562.717L642.772 576.111C636.581 570.752 631.061 564.434 625.058 558.817C619.946 563.424 615.158 568.614 610.307 573.504L582.953 601.041L595.296 612.951C590.91 617.39 586.405 621.71 581.784 625.906L574.915 619.282L569.54 613.938C564.866 617.597 560.637 622.174 556.351 626.297C551.974 622.388 547.934 618.131 543.504 614.257C547.716 610.063 551.78 605.812 555.712 601.353C551.559 597.132 547.226 593.13 542.869 589.123C547.182 584.184 551.679 579.45 556.594 575.104C560.586 579.456 564.79 583.608 569.19 587.547C576.759 580.971 583.769 573.68 590.879 566.616C597.814 559.725 604.99 552.961 611.499 545.664C608.007 541.502 603.96 537.758 600.108 533.931Z"/><path d="M368.952 561.71C381.869 548.585 394.927 535.355 408.54 522.956C413.791 526.627 418.604 532.033 423.263 536.447C420.02 539.914 416.498 543.176 413.114 546.509C426.432 560.75 440.889 574.15 454.584 588.06C458.712 584.055 462.688 579.892 466.826 575.891C471.351 580.587 475.842 585.313 480.579 589.796C475.979 593.524 471.793 597.594 467.597 601.759C471.863 605.714 475.912 609.803 479.914 614.023C475.876 618.285 471.455 622.291 467.237 626.383C462.753 622.406 458.619 618.032 454.414 613.764L450.789 617.345C447.403 620.712 443.983 624.045 440.531 627.344L427.824 614.789C431.931 610.098 436.722 605.914 440.979 601.328C427.951 586.989 413.288 573.809 399.525 560.159C393.544 564.956 388.55 570.975 382.642 575.926C378.12 571.148 373.556 566.409 368.952 561.71Z"/><path fill="#E2E2E2" d="M342.231 753.772C348.289 739.724 353.924 725.348 359.583 711.131C362.341 704.2 364.683 696.836 367.998 690.165C368.739 690.338 369.392 690.592 370.1 690.866C373.153 695.021 379.4 713.397 381.792 719.346C386.403 730.808 391.522 742.055 396.01 753.567L385.074 753.687L382.078 744.267L369.375 744.257L356.79 744.218C355.456 747.313 354.511 750.697 353.424 753.894C349.693 753.885 345.962 753.844 342.231 753.772ZM369.137 713.337C366.331 720.301 363.737 727.348 360.935 734.311L370.125 734.337C372.528 734.284 374.941 734.278 377.34 734.147C376.143 730.352 371.262 715.895 369.137 713.337Z"/><path fill="#E2E2E2" d="M473.509 737.007C474.822 739.267 476.31 741.446 478.459 742.995C481.028 744.845 485.462 745.828 488.575 745.241C490.9 744.802 493.864 742.887 495.086 740.837C496.234 738.914 496.353 736.229 495.718 734.116C493.594 727.045 481.046 725.667 475.334 722.302C471.549 720.072 468.462 716.982 467.413 712.602C466.423 708.469 467.24 702.648 469.539 699.022C472.672 694.082 478.054 691.802 483.535 690.619C486.014 690.445 488.521 690.481 490.968 690.962C496.989 692.146 501.579 695.322 505.031 700.343C502.638 702.653 499.684 704.547 496.99 706.504C496.485 705.378 495.906 704.228 495.025 703.347C492.69 701.011 488.956 700.075 485.737 700.248C483.111 700.39 480.672 701.077 478.932 703.154C477.621 704.718 477.126 706.595 477.47 708.611C478.741 716.058 495.698 718.633 501.361 723.135C504.564 725.681 507.105 729.136 507.535 733.299C508.055 738.329 505.822 744.322 502.619 748.157C498.227 753.416 492.138 754.377 485.731 755.001C483.393 754.793 481.006 754.499 478.736 753.881C472.132 752.082 468.013 748.648 464.637 742.822C467.359 740.606 470.522 738.849 473.509 737.007Z"/><path fill="#E2E2E2" d="M628.893 753.558C631.328 744.563 635.96 735.645 639.432 726.944C644.256 714.853 648.452 702.059 654.1 690.358C655.137 690.295 656.015 690.137 656.993 690.56C658.764 691.326 681.613 748.295 683.673 753.551L672.855 753.621C671.478 750.444 670.267 747.266 669.146 743.99L658.481 743.994L642.881 743.882L639.227 753.61L628.893 753.558ZM655.178 711.287C652.337 718.887 649.42 726.464 647.035 734.223L657.753 734.27C660.148 734.169 662.558 734.122 664.948 733.938C663.589 730.029 657.53 713.239 655.178 711.287Z"/><path fill="#E2E2E2" d="M238.539 700.117L238.543 690.946L283.577 691.006L283.565 699.992L266.67 699.977C266.473 712.016 266.687 724.084 266.75 736.125C266.827 742.032 266.83 747.939 266.759 753.845L255.949 753.894L255.885 700.13L238.539 700.117Z"/><path fill="#E2E2E2" d="M292.138 753.765L292.12 691.066C301.373 691.001 313.661 689.747 322.433 692.072C327.415 693.392 331.875 696.295 334.298 700.946C336.675 705.51 336.951 711.762 335.384 716.624C333.393 722.804 328.645 725.607 323.255 728.44C327.342 737.087 332.731 745.402 337.575 753.656L325.342 753.78C320.755 745.754 316.121 737.753 311.442 729.78L302.918 729.797L302.82 753.737C299.266 753.879 295.695 753.792 292.138 753.765ZM302.565 699.63L302.546 721.025C308.958 721.117 317.278 722.365 322.731 718.471C324.702 715.692 326.387 711.986 325.653 708.477C325.094 705.802 323.158 703.705 320.881 702.317C315.566 699.075 308.553 699.548 302.565 699.63Z"/><path fill="#E2E2E2" d="M404.092 753.695C404.598 739.768 404.446 725.764 404.344 711.83C404.292 704.841 403.766 697.583 404.329 690.628C405.467 690.784 406.241 690.975 407.13 691.743C412.912 696.738 417.975 703.388 423.072 709.104C429.778 716.624 436.748 723.898 443.531 731.349L443.542 691.127L453.986 691.096L454.1 753.797C453.026 753.984 452.039 754.009 450.955 754.033C447.142 752.26 419.228 719.516 415.016 714.28L415.07 753.661L404.092 753.695Z"/><path fill="#E2E2E2" d="M568.722 744.756C564.32 748.957 558.486 752.608 552.515 753.993C544.003 755.967 534.537 754.407 527.217 749.621C520.233 745.1 515.351 737.97 513.661 729.824C511.932 721.325 513.585 711.555 518.493 704.352C523.73 696.667 531.798 692.703 540.712 691.124C542.222 691.012 543.742 690.896 545.257 690.886C554.354 690.825 561.715 694.988 568.036 701.163C565.637 703.396 563.035 705.403 560.48 707.452C557.424 704.719 554.354 702.457 550.373 701.262C545.273 699.732 539.608 700.479 534.96 703.024C529.859 705.853 526.151 710.661 524.71 716.314C523.116 722.346 523.89 729.383 527.117 734.763C529.927 739.446 534.425 742.457 539.69 743.752C546.111 745.331 551.942 743.983 557.517 740.684L561.503 737.817L568.722 744.756Z"/><path fill="#E2E2E2" d="M578.767 753.614L578.861 691.116C589.776 690.94 604.917 688.936 614.699 694.675C619.233 697.334 622.427 701.594 623.584 706.735C624.724 711.803 623.985 717.346 621.165 721.753C618.145 726.474 613.804 728.717 608.465 729.847C613.971 737.615 619.286 745.517 624.406 753.546L615.375 753.593C614.522 753.587 613.663 753.471 612.814 753.393C608.034 749.829 601.083 736.347 597.312 730.756L589.542 730.757L589.519 753.63L578.767 753.614ZM589.539 700.559L589.503 721.459C596.112 721.56 604.93 722.821 610.464 718.716C612.463 716.152 614.219 713.01 613.813 709.612C613.533 707.275 611.874 705.318 610.05 703.957C604.262 699.637 596.361 700.439 589.539 700.559Z"/><path fill="#E2E2E2" d="M692.163 753.69C692.086 732.79 692.114 711.889 692.247 690.989L729.141 691.008L729.086 700.208L703.247 700.27C703.156 706.475 703.207 712.689 703.189 718.896L722.958 719.014L722.942 728.455L703.29 728.515C703.173 736.916 703.241 745.329 703.221 753.732L692.163 753.69Z"/><path fill="#E2E2E2" d="M734.507 700.193L734.528 690.98L778.519 691.044L778.495 700.154C772.945 700.305 767.382 700.306 761.83 700.374C761.993 712.587 762.089 724.801 762.119 737.015L762.147 753.433L751.991 753.46L751.568 700.328L734.507 700.193Z"/><path d="M302.546 721.025L302.565 699.63C308.553 699.548 315.566 699.075 320.881 702.317C323.158 703.705 325.094 705.802 325.653 708.477C326.387 711.986 324.702 715.692 322.731 718.471C317.278 722.365 308.958 721.117 302.546 721.025Z"/><path d="M589.503 721.459L589.539 700.559C596.361 700.439 604.262 699.637 610.05 703.957C611.874 705.318 613.533 707.275 613.813 709.612C614.219 713.01 612.463 716.152 610.464 718.716C604.93 722.821 596.112 721.56 589.503 721.459Z"/><path d="M647.035 734.223C649.42 726.464 652.337 718.887 655.178 711.287C657.53 713.239 663.589 730.029 664.948 733.938C662.558 734.122 660.148 734.169 657.753 734.27L647.035 734.223Z"/><path d="M360.935 734.311C363.737 727.348 366.331 720.301 369.137 713.337C371.262 715.895 376.143 730.352 377.34 734.147C374.941 734.278 372.528 734.284 370.125 734.337L360.935 734.311Z"/></svg>